<svg width="173" height="160" viewBox="0 0 173 160" fill="none" xmlns="http://www.w3.org/2000/svg">
<path d="M33.5194 0.286153C32.5738 0.613186 31.7561 1.41033 31.3728 2.35055C31.0916 3.00461 31.1683 3.22945 32.2672 5.15077C32.9316 6.31582 35.4105 10.6081 37.7616 14.7165C40.1126 18.8248 43.3837 24.5275 45.0193 27.389C46.6804 30.2505 49.4148 35.0538 51.127 38.038L54.2447 43.4749L57.2858 44.2721C59.4835 44.8444 60.8891 45.3758 62.3202 46.1116C64.2368 47.1336 66.9201 48.033 68.0445 48.033C68.8623 48.033 68.8879 48.1351 68.5557 49.3411C67.329 53.5516 68.1723 58.0075 70.9067 61.9318C71.8012 63.2195 72.7978 64.2006 74.6889 65.7336L77.27 67.798L76.3245 68.6769L75.3789 69.5558L74.5356 68.7791C73.3345 67.6958 70.6256 66.1015 68.7601 65.3861C66.9968 64.7116 63.6746 63.9758 62.4224 63.9758C61.7324 63.9758 61.528 63.8736 61.2724 63.3626C61.068 62.9538 60.7613 62.7494 60.4035 62.7494C60.1224 62.7494 57.848 62.6064 55.3947 62.4428C24.8306 60.358 4.82084 59.0703 4.25862 59.1725C3.1853 59.3565 1.57532 60.6033 0.859771 61.7888C-0.469103 63.9758 -0.239106 66.1424 1.42199 67.4096C1.95865 67.798 9.77856 71.8246 18.8507 76.3417C27.9228 80.8589 39.1927 86.5002 43.8948 88.8712C51.6636 92.7547 52.507 93.143 52.8903 92.8569C53.2736 92.5912 53.4525 92.5912 54.5514 92.8773C57.848 93.7358 61.8857 93.8993 65.0035 93.2861C67.4057 92.8364 70.549 91.5896 72.4401 90.3633L74.0245 89.3413L74.4589 89.8932C74.7145 90.1997 75.6856 91.0991 76.6567 91.8962L78.3944 93.3474L77.73 93.838C76.6567 94.6147 74.8678 96.72 74.1523 98.0281C73.7945 98.7026 73.4623 99.2545 73.4623 99.2749C73.4367 99.2953 72.4401 99.418 71.2645 99.5406C70.089 99.6633 68.3512 100.011 67.4312 100.276C66.5112 100.563 64.4924 100.931 62.9335 101.094C61.4002 101.278 59.9946 101.523 59.8413 101.646C59.688 101.789 56.008 105.57 51.6381 110.067C47.2937 114.564 39.6782 122.412 34.7205 127.522C29.7372 132.632 25.5973 137.088 25.4695 137.436C25.0862 138.519 25.2139 138.989 26.1339 139.888C26.9772 140.726 27.1306 140.788 28.6639 140.91L30.2994 141.033L48.9037 134.881C59.1513 131.508 69.7823 127.992 72.5167 127.093C75.2511 126.194 78.42 125.151 79.5444 124.783C81.4355 124.17 81.6399 124.027 82.4066 123.026C82.841 122.412 83.761 121.411 84.3999 120.777L85.601 119.633L87.5688 120.021C88.6421 120.225 90.0476 120.389 90.7121 120.389C91.8621 120.389 91.9132 120.409 92.2198 121.145C92.5776 122.045 94.0342 124.395 94.5709 124.988C94.8265 125.254 94.9031 125.703 94.8265 126.521L94.6987 127.645L98.762 129.832C100.985 131.018 104.359 132.857 106.25 133.9C110.722 136.332 121.046 141.953 126.566 144.957C128.968 146.265 132.29 148.064 133.977 149.004C135.664 149.924 140.494 152.54 144.71 154.85C148.927 157.16 152.684 159.224 153.041 159.449C155.392 160.941 159.813 159.224 160.836 156.444C161.347 154.993 161.296 154.891 158.101 150.68C155.009 146.613 138.27 124.64 130.604 114.564C127.614 110.639 124.956 107.349 124.726 107.267C124.471 107.205 123.832 107.124 123.295 107.124C122.477 107.103 121.992 106.899 120.612 105.979C118.567 104.61 115.45 103.322 113.405 102.974L111.923 102.729L111.616 101.503C110.926 98.6208 108.856 95.5345 106.275 93.511L104.972 92.5094L106.403 91.3444L107.834 90.1793L109.291 90.8538C112.051 92.1619 113.635 92.4685 117.494 92.489C120.612 92.489 121.123 92.4277 122.988 91.8962C124.726 91.4057 125.569 91.3239 128.738 91.2013L132.444 91.0991L144.123 80.3479C150.562 74.4409 159.686 66.0606 164.413 61.7275L173 53.8582L172.847 52.9793C172.514 50.9149 170.572 49.4637 168.17 49.4637C167.812 49.4637 156.645 52.4888 143.356 56.1883C130.042 59.8879 117.264 63.4444 114.938 64.0984C110.16 65.4066 110.006 65.5088 108.422 68.0024C107.911 68.82 107.4 69.4945 107.297 69.4945C107.221 69.4945 106.377 68.9017 105.406 68.1864L103.669 66.8782L104.844 66.1015C107.4 64.3437 110.057 60.8486 111.131 57.7826C111.642 56.3723 111.718 55.616 111.744 53.0815C111.744 51.4259 111.795 50.0769 111.872 50.0769C111.948 50.0973 112.69 50.22 113.533 50.3835C114.376 50.547 116.088 50.6901 117.341 50.6901C121.097 50.6901 124.317 49.8725 127.333 48.1351C128.227 47.6242 129.122 47.2154 129.301 47.1949C129.479 47.1949 128.662 46.9701 127.461 46.7044C124.445 46.0503 125.339 46.0708 128.636 46.7248C130.399 47.0927 131.217 47.338 130.987 47.4402C130.732 47.5833 130.732 47.6242 131.064 47.6242C131.294 47.6242 137.913 41.431 146.09 33.5617C154.14 25.8356 160.912 19.3358 161.142 19.111C161.372 18.8861 161.96 18.3547 162.395 17.9255C162.855 17.4758 163.161 17.0261 163.059 16.924C162.982 16.8013 163.033 16.7604 163.161 16.8218C163.315 16.9035 164.107 16.2903 164.95 15.4727C165.793 14.6756 167.122 13.3879 167.915 12.6521C168.707 11.9163 169.371 11.1191 169.371 10.8943C169.371 9.48395 165.768 6.15231 163.775 5.72307C162.803 5.51868 162.446 5.62088 155.52 7.88967C151.559 9.1978 146.448 10.8534 144.199 11.5892C141.95 12.3251 135.562 14.4099 130.016 16.2494C124.471 18.0686 117.724 20.276 115.015 21.1549C112.306 22.0338 110.16 22.831 110.236 22.9127C110.287 22.9945 110.773 22.9332 111.258 22.7697C112.511 22.3609 112.613 22.5244 111.437 23.0149C110.262 23.485 110.083 23.6486 110.083 24.3231C110.083 24.7114 109.827 24.9158 109.112 25.1815C104.41 26.9393 100.398 32.131 100.372 36.4642C100.372 37.8132 100.551 37.7927 97.8675 36.8934C95.1331 35.9736 92.9865 35.7283 88.9743 35.8101L85.3966 35.8919L85.0899 34.3589C84.8855 33.2552 84.451 32.2536 83.6588 30.9659C83.0199 29.9439 82.3299 28.4723 82.0999 27.6956C81.8955 26.8985 81.6655 26.0604 81.5633 25.8356C81.4866 25.5699 79.8511 24.507 77.6278 23.2193C75.5322 22.0338 73.7689 21.0527 73.6923 21.0527C73.6156 21.0527 73.6156 21.2163 73.6923 21.4002C73.82 21.7068 73.7945 21.7068 73.59 21.4615C73.4367 21.298 73.36 21.1141 73.4367 21.0323C73.5389 20.8892 70.3701 19.0088 70.0379 19.0088C69.9356 19.0088 70.1401 19.2336 70.4723 19.5198C70.8045 19.8059 71.009 20.0308 70.9067 20.0308C70.6256 20.0308 69.7056 19.1519 69.8334 19.0088C69.9356 18.8657 64.2879 15.5341 63.9302 15.5341C63.8535 15.5341 63.9302 15.6976 64.109 15.8815C64.4413 16.2086 64.4157 16.229 64.0324 15.9633C63.7768 15.8202 63.649 15.6158 63.7002 15.5136C63.9046 15.2683 61.5791 14.0624 61.2213 14.2259C61.068 14.3077 61.0169 14.2872 61.0935 14.1646C61.2469 13.9807 56.1358 10.9556 47.0381 5.82527C46.4248 5.49824 43.8437 4.04703 41.3137 2.59582C36.9694 0.163516 36.6371 -3.97051e-07 35.5127 -3.97051e-07C34.8483 0.0204392 33.9538 0.143076 33.5194 0.286153ZM35.7171 6.33626C35.8705 6.5611 35.9216 6.74505 35.8705 6.74505C35.7938 6.74505 35.6149 6.5611 35.4616 6.33626C35.3083 6.11143 35.2572 5.92747 35.3083 5.92747C35.3849 5.92747 35.5638 6.11143 35.7171 6.33626ZM46.9615 9.3C47.447 9.68835 47.7792 10.0154 47.7026 10.0154C47.6259 10.0154 47.1915 9.68835 46.7059 9.3C46.2204 8.91165 45.8881 8.58461 45.9648 8.58461C46.0415 8.58461 46.4759 8.91165 46.9615 9.3ZM161.449 8.68681C161.449 8.72769 161.193 8.87077 160.887 8.9934C160.325 9.21824 160.325 9.1978 160.785 8.91165C161.321 8.56417 161.449 8.52329 161.449 8.68681ZM159.66 9.50439C159.66 9.54527 159.405 9.68835 159.098 9.81099C158.536 10.0358 158.536 10.0154 158.996 9.72923C159.532 9.38175 159.66 9.34088 159.66 9.50439ZM157.871 10.322C157.871 10.3629 157.539 10.5468 157.105 10.7308C156.134 11.1191 156.082 10.9556 157.054 10.5468C157.846 10.1993 157.871 10.1789 157.871 10.322ZM50.4114 11.8549C50.667 12.0798 50.8203 12.2637 50.7436 12.2637C50.667 12.2637 50.4114 12.0798 50.1559 11.8549C49.9003 11.6301 49.747 11.4461 49.8236 11.4461C49.9003 11.4461 50.1559 11.6301 50.4114 11.8549ZM154.805 11.7323C154.805 11.7732 154.14 12.1207 153.348 12.4681C152.53 12.836 151.355 13.3675 150.716 13.6536C150.077 13.9398 149.694 14.0829 149.821 13.9602C150.051 13.7763 154.549 11.6505 154.754 11.6505C154.779 11.6505 154.805 11.6914 154.805 11.7323ZM160.171 13.7558C160.171 13.7763 159.507 14.3077 158.715 14.9209L157.232 16.045L158.638 14.8596C159.916 13.7763 160.171 13.5923 160.171 13.7558ZM148.927 14.4099C148.927 14.4508 148.671 14.5938 148.365 14.7165C147.803 14.9413 147.803 14.9209 148.263 14.6347C148.799 14.2872 148.927 14.2464 148.927 14.4099ZM147.649 15.0231C147.649 15.064 147.317 15.2479 146.883 15.4319C145.911 15.8202 145.86 15.6567 146.831 15.2479C147.624 14.9004 147.649 14.88 147.649 15.0231ZM145.349 16.045C145.349 16.0859 145.094 16.229 144.787 16.3516C144.225 16.5765 144.225 16.556 144.685 16.2699C145.221 15.9224 145.349 15.8815 145.349 16.045ZM143.56 16.8422C143.56 16.924 131.933 22.32 130.527 22.8923C130.169 23.0354 129.965 23.0763 130.067 22.9945C130.22 22.8514 143.33 16.7809 143.509 16.7604C143.535 16.7604 143.56 16.8013 143.56 16.8422ZM68.4534 18.5591C68.2745 18.6 67.9934 18.5387 67.8657 18.4365C67.6612 18.273 67.7634 18.2525 68.1979 18.3343C68.5301 18.416 68.6579 18.4978 68.4534 18.5591ZM65.949 23.1376C67.3546 24.18 68.3001 24.7319 68.709 24.7319C70.1401 24.7523 70.2679 25.4881 68.9901 26.3875C68.4534 26.7758 67.9168 26.9802 67.6357 26.9189C67.3546 26.8576 67.2012 26.8985 67.3034 27.0007C67.4823 27.2664 67.329 27.2255 66.4857 26.878C66.0768 26.7145 65.8468 26.5714 65.9746 26.5714C66.1023 26.5714 66.1535 26.5101 66.0768 26.4488C65.9746 26.3875 65.6168 26.4897 65.2335 26.6941C64.7224 26.9598 64.6457 27.0824 64.9013 27.2255C65.1312 27.3481 65.0801 27.389 64.6968 27.3072C64.339 27.2255 63.9046 27.389 63.2657 27.8387C62.7802 28.2066 62.2691 28.5541 62.1413 28.5949C61.4513 28.8402 60.7869 29.2899 60.9146 29.4534C60.9913 29.5556 60.838 29.576 60.608 29.4943C60.3524 29.4125 60.2246 29.4534 60.3269 29.576C60.4035 29.6782 60.3524 29.7804 60.1735 29.7804C59.7902 29.7804 56.698 31.62 56.2125 32.1514C55.9058 32.458 55.7269 32.3149 54.398 30.7206C52.5836 28.4723 52.5325 28.411 52.6858 28.411C52.7369 28.411 53.4781 29.1877 54.3214 30.1483L55.8291 31.8857L61.298 28.5949C64.3135 26.7758 66.9457 25.1611 67.1501 25.018C67.4823 24.7523 67.099 24.3844 64.2113 22.1565C60.9146 19.6015 61.7835 20.0921 65.949 23.1376ZM72.1334 20.4191C72.2101 20.5213 72.1845 20.6644 72.0567 20.7257C71.9289 20.787 71.8267 20.7053 71.8267 20.5418C71.8267 20.1943 71.9034 20.1534 72.1334 20.4191ZM74.97 22.1156L75.4556 22.5857L74.8167 22.1769C74.4589 21.9521 74.1267 21.7477 74.0756 21.7272C74.0245 21.6864 74.0756 21.6659 74.2289 21.6659C74.3567 21.6659 74.6889 21.8703 74.97 22.1156ZM76.9889 23.3011C77.0656 23.4033 77.0144 23.5055 76.8867 23.5055C76.7333 23.5055 76.6056 23.4033 76.6056 23.3011C76.6056 23.1785 76.6567 23.0967 76.7078 23.0967C76.7844 23.0967 76.9122 23.1785 76.9889 23.3011ZM129.633 23.2807C129.479 23.3624 126.336 24.8545 122.605 26.5714C110.696 32.0697 109.879 32.6215 110.134 34.7881C110.211 35.3195 110.236 35.7692 110.211 35.7692C110.083 35.7692 108.294 33.5209 108.294 33.3574C108.294 33.2552 108.55 32.9894 108.882 32.7442C109.342 32.3967 129.403 23.1376 129.761 23.0967C129.812 23.0967 129.761 23.1785 129.633 23.2807ZM109.751 25.7947C109.674 25.9378 109.623 25.8356 109.623 25.5494C109.623 25.2633 109.674 25.1611 109.751 25.2837C109.802 25.4268 109.802 25.6721 109.751 25.7947ZM62.8057 29.7396C62.6268 29.9031 62.3713 30.0461 62.218 30.0461C62.0646 30.0461 62.1668 29.9031 62.4479 29.7396C63.0868 29.3512 63.2146 29.3512 62.8057 29.7396ZM73.4112 32.3967C73.4112 32.6624 73.2067 32.8259 72.8489 32.8668C72.4145 32.9281 72.2612 32.8259 72.2612 32.5398C72.2612 32.3354 72.3378 32.0901 72.4401 32.0083C72.7723 31.7426 73.4112 31.9879 73.4112 32.3967ZM55.0625 37.0365C54.9858 37.1795 54.9347 37.0774 54.9347 36.7912C54.9347 36.505 54.9858 36.4028 55.0625 36.5255C55.1136 36.6686 55.1136 36.9138 55.0625 37.0365ZM108.652 36.9752C109.265 37.5066 109.086 38.0584 108.243 38.3037C107.425 38.5286 106.761 38.1811 106.761 37.527C106.761 36.6072 107.885 36.2802 108.652 36.9752ZM125.288 39.4892C121.123 42.5756 119.283 44.0472 119.283 44.313C119.283 44.4356 119.487 44.6809 119.717 44.8853C120.152 45.2123 120.101 45.2327 119.155 45.0897C118.593 45.0079 118.056 44.8648 117.954 44.8035C117.877 44.7217 118.772 43.9655 119.973 43.1275C121.174 42.2894 123.448 40.6543 125.007 39.5097C126.566 38.365 127.895 37.4248 127.972 37.4248C128.048 37.4248 126.847 38.3446 125.288 39.4892ZM87.4154 41.2266C87.0832 41.2675 86.521 41.2675 86.1377 41.2266C85.7288 41.1857 86.0099 41.1448 86.6999 41.1448C87.4154 41.1448 87.7221 41.1857 87.4154 41.2266ZM84.6044 41.431C84.4255 41.4719 84.0677 41.4719 83.8377 41.431C83.5821 41.3697 83.7355 41.3288 84.1444 41.3288C84.5788 41.3288 84.7577 41.3697 84.6044 41.431ZM89.971 41.431C89.7921 41.4719 89.4854 41.4719 89.3321 41.431C89.1532 41.3697 89.281 41.3288 89.6387 41.3288C89.9965 41.3288 90.1243 41.3697 89.971 41.431ZM82.7388 41.6967C81.8699 41.9215 81.2055 41.9215 81.8444 41.6967C82.1255 41.5945 82.5855 41.5332 82.8666 41.5332C83.2755 41.5332 83.2499 41.5741 82.7388 41.6967ZM93.2931 42.1055C95.5676 42.78 94.9031 42.7595 92.4498 42.0646C91.2487 41.7376 90.6354 41.5127 91.0443 41.5741C91.4787 41.6149 92.5009 41.8602 93.2931 42.1055ZM116.344 43.0048L116.778 43.6384L116.267 43.1479C115.986 42.8617 115.577 42.3712 115.322 42.0237L114.887 41.3901L115.398 41.8806C115.68 42.1668 116.088 42.6573 116.344 43.0048ZM97.9442 44.1903C98.2253 44.4152 97.7142 44.2108 96.8198 43.7611C95.8998 43.291 95.1076 42.8617 95.0309 42.78C94.6987 42.4734 97.4587 43.8224 97.9442 44.1903ZM77.6278 43.2297C77.6278 43.2705 77.3722 43.4136 77.0656 43.5362C76.5033 43.7611 76.5033 43.7406 76.9633 43.4545C77.5 43.107 77.6278 43.0661 77.6278 43.2297ZM88.4121 44.3947C88.131 44.6195 87.5943 44.456 87.5943 44.1494C87.5943 44.0677 87.8243 44.0268 88.131 44.0881C88.4632 44.1699 88.5654 44.2721 88.4121 44.3947ZM90.4821 44.5991C90.8654 44.7013 91.1721 44.9261 91.1721 45.0897C91.1721 45.2532 91.4276 45.3758 91.7854 45.3758C92.7565 45.3758 93.0376 45.8255 92.8587 47.1336C92.7309 48.3395 91.9898 49.2184 91.3765 48.9323C91.1976 48.8301 91.1721 48.871 91.2998 49.0549C91.4532 49.2593 91.3765 49.3002 90.9676 49.2184C90.661 49.1367 90.4054 49.1776 90.4054 49.2798C90.4054 49.382 90.0732 49.4637 89.6387 49.4637C89.2299 49.4637 88.8721 49.382 88.8721 49.2798C88.8721 49.1776 88.6421 49.0141 88.361 48.9527C87.6965 48.7892 87.0832 47.6037 87.0832 46.5C87.0832 45.989 86.9554 45.5802 86.7766 45.5189C86.5977 45.4576 86.8277 45.3554 87.2877 45.2736C87.7477 45.1919 88.1821 45.0283 88.2588 44.9466C88.3354 44.8444 88.6165 44.7626 88.8976 44.7626C89.1788 44.7626 89.3321 44.8444 89.2554 44.967C89.1532 45.0897 89.4854 45.151 90.0732 45.151C90.7887 45.1305 90.8654 45.0897 90.4054 45.0283C90.0476 44.967 89.5365 44.7422 89.2554 44.4969C88.7699 44.0677 88.7699 44.0677 89.2554 44.2312C89.5365 44.313 90.0732 44.4969 90.4821 44.5991ZM99.222 44.967C99.4775 45.1919 99.6309 45.3758 99.5542 45.3758C99.4775 45.3758 99.222 45.1919 98.9664 44.967C98.7109 44.7422 98.5575 44.5582 98.6342 44.5582C98.7109 44.5582 98.9664 44.7422 99.222 44.967ZM120.995 45.2941C120.918 45.3554 120.688 45.3758 120.509 45.3145C120.305 45.2532 120.382 45.1919 120.663 45.1919C120.944 45.1714 121.097 45.2327 120.995 45.2941ZM123.244 45.6824C124.624 46.0299 124.087 46.0503 122.477 45.7028C121.787 45.5393 121.429 45.4167 121.711 45.4167C121.992 45.4167 122.682 45.5189 123.244 45.6824ZM125.084 46.1116C125.007 46.173 124.777 46.1934 124.598 46.1321C124.394 46.0708 124.471 46.0094 124.752 46.0094C125.033 45.989 125.186 46.0503 125.084 46.1116ZM78.8544 48.7075L79.9277 49.5864L79.2122 49.6272C78.1389 49.6886 77.2956 50.5879 77.4744 51.4872C77.8833 53.6129 81.41 53.2859 81.1544 51.1398L81.0777 50.3426L81.8955 50.8332C82.5344 51.242 82.7388 51.5077 82.7388 52.0187C82.7388 53.4086 80.6688 54.9824 78.8289 54.9824C74.1778 54.9824 72.2867 49.9134 76.2222 48.0738C77.1167 47.665 77.7555 47.8081 78.8544 48.7075ZM97.9442 50.1382C99.8608 52.7749 97.4842 56.0044 93.3698 56.3518C90.4565 56.5971 88.2588 55.3299 87.7477 53.1224C87.5688 52.2844 87.6965 52.1413 89.281 51.6508L90.3543 51.3237L90.2265 52.08C90.0476 53.1224 90.8654 53.9604 92.0665 53.9604C93.2676 53.9604 93.702 53.7969 94.1109 53.1224C94.6731 52.2639 94.5965 51.9369 93.5998 51.2011L92.7309 50.5266L94.5709 49.9134C95.5931 49.5659 96.6153 49.2798 96.8453 49.2798C97.1009 49.2593 97.5609 49.6272 97.9442 50.1382ZM169.371 54.4305C169.371 54.4714 169.116 54.6758 168.809 54.9006L168.221 55.289L168.707 54.8189C169.167 54.3897 169.371 54.267 169.371 54.4305ZM74.3567 55.7795C74.8167 56.1066 75.4811 56.5562 75.8133 56.7606L76.4011 57.149L75.3534 57.7009C74.7911 58.0075 74.2545 58.2527 74.1778 58.2527C74.0756 58.2527 73.5134 56.822 73.13 55.5138C72.9256 54.8393 73.0278 54.8802 74.3567 55.7795ZM166.816 56.2701C166.816 56.311 166.33 56.6993 165.742 57.1286L164.643 57.9461L165.666 57.0672C166.586 56.2701 166.816 56.1066 166.816 56.2701ZM81.4866 58.8455C82.4833 59.0703 83.3777 59.3156 83.4544 59.3565C83.5055 59.4178 82.8666 60.0514 81.9977 60.7464L80.4389 62.034L79.9022 61.5231C79.3911 61.0529 78.1644 59.2747 77.4489 58.0075L77.1422 57.4351L78.3944 57.9461C79.0589 58.2118 80.4644 58.6206 81.4866 58.8455ZM96.9987 59.2134C95.8487 61.1756 95.2098 61.9932 95.0053 61.7888C94.8776 61.707 94.2898 61.0734 93.6509 60.3989L92.5009 59.1725L94.8265 58.5389C96.1298 58.171 97.3053 57.8848 97.4842 57.8644C97.6631 57.8439 97.4587 58.4162 96.9987 59.2134ZM91.6832 59.4178C91.6832 59.8879 88.2077 62.9538 87.671 62.9538C87.3388 62.9538 84.7832 60.031 84.7832 59.6631C84.7832 59.5609 86.0099 59.4587 87.5432 59.4178C89.051 59.3973 90.5843 59.336 90.9932 59.3156C91.3765 59.2951 91.6832 59.336 91.6832 59.4178ZM76.35 61.6253C76.6311 61.891 76.6056 61.9114 76.2478 61.8092C76.0178 61.7479 75.8389 61.6048 75.8389 61.5026C75.8389 61.2369 75.9922 61.2778 76.35 61.6253ZM125.161 61.7275C124.956 61.8297 124.675 61.9318 124.522 61.9318C124.394 61.9318 124.445 61.8297 124.649 61.7275C124.854 61.6253 125.161 61.5231 125.288 61.5231C125.442 61.5231 125.365 61.6253 125.161 61.7275ZM97.7142 62.1567C98.6342 62.6064 98.8386 62.8107 98.1998 62.6064C97.9442 62.545 97.8164 62.6064 97.8675 62.7699C97.9186 62.9334 97.7909 63.0356 97.6375 62.9947C97.4587 62.9743 97.3053 63.0356 97.3053 63.1582C97.3053 63.2604 97.1264 63.3626 96.922 63.3626C96.6409 63.3626 96.5387 63.1378 96.5387 62.545C96.5387 62.0954 96.6153 61.7275 96.692 61.7275C96.7942 61.7275 97.2542 61.9114 97.7142 62.1567ZM123.883 62.1362C123.678 62.2384 123.269 62.3202 122.988 62.3202H122.477L122.988 62.1362C123.269 62.034 123.678 61.9523 123.883 61.9523C124.215 61.9318 124.215 61.9523 123.883 62.1362ZM84.3488 65.0591C84.2977 65.1409 84.0166 65.1 83.7099 64.9773C83.4288 64.8547 82.9177 64.8138 82.5599 64.8956C82.0488 64.9978 81.9466 64.9569 82.0488 64.7116C82.2533 64.3233 81.7166 64.2824 81.2311 64.6299C80.95 64.8547 80.9244 64.8343 81.1033 64.589C81.2311 64.4255 81.3333 64.2211 81.3333 64.1598C81.3333 64.0984 81.6144 63.7101 81.9722 63.3013L82.5855 62.5655L83.531 63.7305C84.0421 64.3642 84.3999 64.9569 84.3488 65.0591ZM10.1619 62.8312C10.1619 62.8721 9.983 62.9743 9.753 63.0356C9.54856 63.0969 9.44634 63.0765 9.523 62.9538C9.67634 62.7494 10.1619 62.6677 10.1619 62.8312ZM120.05 63.1582C120.05 63.2604 119.998 63.3626 119.947 63.3626C119.871 63.3626 119.743 63.2604 119.666 63.1582C119.59 63.0356 119.641 62.9538 119.768 62.9538C119.922 62.9538 120.05 63.0356 120.05 63.1582ZM90.5076 63.9554C91.4276 64.7116 91.5809 65.3657 90.7632 65.1204C90.5587 65.0591 90.4054 65.1 90.4054 65.2226C90.4054 65.3453 90.2265 65.4066 90.0221 65.3248C89.8176 65.2635 89.6387 65.2839 89.6387 65.3861C89.6387 65.6314 88.8721 65.5701 88.8721 65.3248C88.8721 65.2022 88.6676 65.2839 88.4376 65.5088C88.2077 65.7336 88.0799 65.7949 88.1565 65.611C88.821 64.078 89.281 63.1582 89.3832 63.1582C89.4599 63.1582 89.971 63.5261 90.5076 63.9554ZM118.516 63.567C118.312 63.6692 118.031 63.7714 117.877 63.7714C117.75 63.7714 117.801 63.6692 118.005 63.567C118.21 63.4648 118.516 63.3626 118.644 63.3626C118.797 63.3626 118.721 63.4648 118.516 63.567ZM134.744 64.1598C134.59 64.262 132.469 65.1613 130.016 66.1424C127.563 67.1235 125.493 67.9615 125.442 67.982C125.391 68.0228 127.563 70.3938 130.246 73.2554L135.153 78.4674L137.146 77.2002C138.245 76.5052 139.65 75.6263 140.264 75.238L141.388 74.5635L140.238 75.4015C139.599 75.8716 138.27 76.8118 137.248 77.4863C136.226 78.1608 135.383 78.8762 135.332 79.0602C135.255 79.3055 135.102 79.2033 134.769 78.6923C134.258 77.8951 133.159 76.7301 130.144 73.6846C129.019 72.5604 127.818 71.2932 127.461 70.8639C126.822 70.1077 126.438 69.9033 126.438 70.3325C126.438 70.4551 126.285 70.5165 126.081 70.4551C125.902 70.3938 125.595 70.4551 125.442 70.5778C125.212 70.7617 125.084 70.7413 124.905 70.5165C124.726 70.2916 124.649 70.2916 124.649 70.4756C124.649 70.6187 124.189 70.3325 123.653 69.8215C123.091 69.3105 122.682 68.7382 122.733 68.5338C122.784 68.3294 122.835 68.0433 122.835 67.9002C122.861 67.6958 123.142 67.6549 123.959 67.7367C124.931 67.8593 125.467 67.6958 129.888 65.938C134.999 63.9145 135.127 63.8736 134.744 64.1598ZM92.2198 65.3453C92.552 65.6723 92.5265 65.6927 92.1432 65.427C91.8876 65.2839 91.6832 65.1204 91.6832 65.0795C91.6832 64.916 91.8876 65.0182 92.2198 65.3453ZM148.671 69.3718C148.671 69.4127 148.467 69.5762 148.237 69.7193C147.828 69.985 147.803 69.9646 148.135 69.6376C148.467 69.3105 148.671 69.2083 148.671 69.3718ZM47.907 69.8215C47.8303 69.8828 47.6003 69.9033 47.4215 69.842C47.217 69.7806 47.2937 69.7193 47.5748 69.7193C47.8559 69.6989 48.0092 69.7602 47.907 69.8215ZM48.9292 70.0259C48.8525 70.0872 48.6226 70.1077 48.4437 70.0464C48.2392 69.985 48.3159 69.9237 48.597 69.9237C48.8781 69.9033 49.0314 69.9646 48.9292 70.0259ZM55.1903 71.007C58.0524 71.518 61.3491 72.1107 62.5502 72.3356C65.3868 72.8874 66.0768 72.8874 66.179 72.3356C66.2301 71.9881 66.3835 72.1107 66.8435 72.8874C67.1757 73.4189 67.3034 73.7664 67.099 73.6437C66.9201 73.5211 63.6746 72.867 59.8669 72.1516C56.0847 71.4567 52.1747 70.7209 51.1781 70.5165C47.907 69.842 49.9514 70.0872 55.1903 71.007ZM98.4298 74.727C98.9153 75.0949 98.9664 75.6468 98.532 75.9943C98.0209 76.4031 96.8709 76.2804 96.4364 75.8103C95.6187 74.8701 97.4075 73.9094 98.4298 74.727ZM117.111 74.6044C117.187 74.7066 117.085 74.8088 116.881 74.8088C116.651 74.8088 116.472 74.7066 116.472 74.6044C116.472 74.4817 116.574 74.4 116.702 74.4C116.855 74.4 117.034 74.4817 117.111 74.6044ZM69.8845 75.1358C70.1145 75.6263 69.629 76.1373 68.9134 76.1373C68.3001 76.1373 67.9934 75.6672 68.2745 75.0949C68.4534 74.7066 69.6801 74.727 69.8845 75.1358ZM78.8289 76.8936C78.7522 77.0571 78.6755 76.9958 78.6755 76.771C78.65 76.5461 78.7266 76.4235 78.8033 76.5052C78.88 76.5666 78.9055 76.7505 78.8289 76.8936ZM65.2846 78.9376C65.2079 79.1011 65.1312 79.0397 65.1312 78.8149C65.1057 78.5901 65.1824 78.4674 65.259 78.5492C65.3357 78.6105 65.3612 78.7945 65.2846 78.9376ZM55.6502 83.2912C56.008 83.4547 56.1869 83.5773 56.0336 83.5773C55.9058 83.5773 55.4969 83.4547 55.1391 83.2912C54.7814 83.1277 54.628 83.005 54.7558 83.005C54.9091 83.005 55.2925 83.1277 55.6502 83.2912ZM134.284 83.6386C134.207 83.8022 134.13 83.7408 134.13 83.516C134.105 83.2912 134.182 83.1685 134.258 83.2503C134.335 83.3116 134.36 83.4956 134.284 83.6386ZM57.1836 83.8022C57.388 83.9044 57.4647 84.0066 57.3113 84.0066C57.1836 84.0066 56.8769 83.9044 56.6725 83.8022C56.468 83.7 56.4169 83.5978 56.5447 83.5978C56.698 83.5978 56.9791 83.7 57.1836 83.8022ZM58.9724 84.4154C59.1769 84.5176 59.2535 84.6197 59.1002 84.6197C58.9724 84.6197 58.6658 84.5176 58.4613 84.4154C58.2569 84.3132 58.2058 84.211 58.3336 84.211C58.4869 84.211 58.768 84.3132 58.9724 84.4154ZM134.028 84.865C133.952 85.0285 133.875 84.9672 133.875 84.7424C133.849 84.5176 133.926 84.3949 134.003 84.4767C134.079 84.538 134.105 84.7219 134.028 84.865ZM60.7613 85.0285C60.9657 85.1307 61.0424 85.2329 60.8891 85.2329C60.7613 85.2329 60.4546 85.1307 60.2502 85.0285C60.0458 84.9263 59.9946 84.8241 60.1224 84.8241C60.2758 84.8241 60.5569 84.9263 60.7613 85.0285ZM62.0391 85.4373C62.2435 85.5395 62.3202 85.6417 62.1668 85.6417C62.0391 85.6417 61.7324 85.5395 61.528 85.4373C61.3235 85.3351 61.2724 85.2329 61.4002 85.2329C61.5535 85.2329 61.8346 85.3351 62.0391 85.4373ZM58.4613 88.769C58.4613 88.8099 58.2058 89.0143 57.8991 89.2391L57.3113 89.6274L57.7969 89.1573C58.2569 88.7281 58.4613 88.6055 58.4613 88.769ZM56.1614 90.3633C54.3725 91.6305 52.3281 92.8569 52.2003 92.7547C52.0725 92.6729 56.9025 89.5661 57.1836 89.5457C57.2602 89.5457 56.8002 89.9136 56.1614 90.3633ZM92.7054 100.685C92.7054 101.033 92.1432 100.971 91.9898 100.603C91.9387 100.46 92.0665 100.358 92.2965 100.358C92.5265 100.358 92.7054 100.501 92.7054 100.685ZM59.918 102.647C59.8413 102.791 59.7902 102.688 59.7902 102.402C59.7902 102.116 59.8413 102.014 59.918 102.136C59.9691 102.28 59.9691 102.525 59.918 102.647ZM59.6624 104.283C59.6113 104.548 59.5602 104.385 59.5602 103.935C59.5346 103.485 59.5858 103.281 59.6624 103.465C59.7135 103.669 59.7135 104.037 59.6624 104.283ZM59.4069 105.816C59.3302 106.02 59.2791 105.856 59.2791 105.468C59.2791 105.08 59.3302 104.916 59.4069 105.1C59.458 105.305 59.458 105.632 59.4069 105.816ZM59.1513 107.553C59.1002 107.819 59.0491 107.655 59.0491 107.205C59.0235 106.756 59.0747 106.551 59.1513 106.735C59.2024 106.94 59.2024 107.308 59.1513 107.553ZM118.133 107.083L120.688 107.246L117.187 107.287C113.047 107.308 113.022 107.328 114.76 109.249C116.037 110.68 118.031 113.235 117.877 113.235C117.673 113.235 112.485 107.553 112.255 107.083C112.102 106.756 112.715 106.756 118.133 107.083ZM58.7935 110.394C58.6147 111.804 58.6402 112.193 58.9213 112.418C59.228 112.642 59.2535 112.601 59.1258 112.193C59.0235 111.825 59.0747 111.866 59.3558 112.315C59.6369 112.785 59.7135 112.826 59.7391 112.54C59.7391 111.784 60.4802 112.847 60.5057 113.644C60.5057 114.216 60.7613 114.584 61.7324 115.381C62.3968 115.954 63.4446 116.873 64.0579 117.425C66.7923 119.919 68.1723 121.002 68.7857 121.125C69.5523 121.268 69.5268 121.227 69.1945 121.901C68.9645 122.372 69.0156 122.433 69.9101 122.637C70.4212 122.74 71.5712 122.944 72.4656 123.067C75.5322 123.496 73.8711 123.455 70.2679 123.005C66.2046 122.494 66.7923 122.412 63.1379 124.068C62.1157 124.518 61.2724 124.865 61.2724 124.824C61.2724 124.763 62.1924 124.252 63.3168 123.68C64.569 123.026 65.3612 122.474 65.3612 122.269C65.3357 122.085 64.2368 120.9 62.8568 119.674C61.5024 118.427 59.8413 116.914 59.2024 116.321C57.7713 115.013 57.9247 114.972 54.2447 117.507C49.2103 120.982 49.517 120.634 55.4203 116.199L57.8736 114.359L58.3591 111.191C58.8447 107.9 59.1513 107.369 58.7935 110.394ZM101.88 109.536C102.237 110.067 101.675 110.639 100.858 110.537C100.449 110.496 100.219 110.333 100.168 109.985C100.014 109.168 101.394 108.8 101.88 109.536ZM60.4291 112.356C60.3524 112.561 60.3013 112.438 60.3013 112.111C60.3013 111.763 60.3524 111.62 60.4291 111.743C60.4802 111.886 60.4802 112.172 60.4291 112.356ZM119.053 114.4C119.385 114.727 119.36 114.748 118.976 114.482C118.542 114.216 118.414 114.053 118.618 114.053C118.67 114.053 118.874 114.216 119.053 114.4ZM99.1964 117.936C99.7331 118.325 100.372 118.795 100.602 118.979C100.832 119.142 102.34 120.246 103.95 121.411C106.837 123.496 110.824 126.582 109.061 125.376C107.834 124.518 101.445 120.512 99.0175 119.06C97.8164 118.345 96.922 117.957 96.7942 118.059C96.6664 118.161 96.3342 119.449 96.0787 120.9C95.4653 124.068 95.3887 123.394 95.8998 119.694C96.1809 117.65 96.3598 117.016 96.7176 116.812C97.2287 116.505 97.1264 116.465 99.1964 117.936ZM44.7893 124.293C44.227 124.743 42.8471 125.765 41.7226 126.562C40.3426 127.543 40.6238 127.277 42.6171 125.744C45.5559 123.475 46.6804 122.719 44.7893 124.293ZM75.4045 123.598C75.2256 123.639 74.9189 123.639 74.7656 123.598C74.5867 123.537 74.7145 123.496 75.0722 123.496C75.43 123.496 75.5578 123.537 75.4045 123.598ZM76.9378 123.802C76.7589 123.843 76.4011 123.843 76.1711 123.802C75.9156 123.741 76.0689 123.7 76.4778 123.7C76.9122 123.7 77.0911 123.741 76.9378 123.802ZM95.4398 124.722C95.3887 124.988 95.3376 124.824 95.3376 124.375C95.312 123.925 95.3631 123.721 95.4398 123.905C95.4909 124.109 95.4909 124.477 95.4398 124.722ZM78.2155 124.007C78.0367 124.048 77.73 124.048 77.5767 124.007C77.3978 123.945 77.5256 123.905 77.8833 123.905C78.2411 123.905 78.3689 123.945 78.2155 124.007ZM128.994 124.988C129.607 125.581 129.607 125.581 129.045 125.192C128.713 124.967 128.329 124.6 128.176 124.375C127.895 123.945 127.972 124.007 128.994 124.988ZM130.042 126.051C130.374 126.378 130.348 126.398 129.965 126.132C129.531 125.867 129.403 125.703 129.607 125.703C129.658 125.703 129.863 125.867 130.042 126.051ZM110.722 126.316C110.977 126.541 111.131 126.725 111.054 126.725C110.977 126.725 110.722 126.541 110.466 126.316C110.211 126.092 110.057 125.908 110.134 125.908C110.211 125.908 110.466 126.092 110.722 126.316ZM95.1842 127.175C95.1331 127.441 95.082 127.277 95.082 126.827C95.0565 126.378 95.1076 126.173 95.1842 126.357C95.2353 126.562 95.2353 126.93 95.1842 127.175ZM56.6725 127.011C56.6725 127.052 56.4936 127.154 56.2636 127.216C56.0591 127.277 55.9569 127.257 56.0336 127.134C56.1869 126.93 56.6725 126.848 56.6725 127.011ZM55.1391 127.645C55.1391 127.686 54.8836 127.829 54.5769 127.952C54.0147 128.176 54.0147 128.156 54.4747 127.87C55.0114 127.522 55.1391 127.481 55.1391 127.645ZM52.0725 129.076C52.0725 129.117 51.817 129.26 51.5103 129.382C50.9481 129.607 50.9481 129.587 51.4081 129.301C51.9447 128.953 52.0725 128.912 52.0725 129.076ZM124.905 136.434C125.237 136.72 125.442 136.945 125.365 136.945C125.314 136.945 124.982 136.72 124.649 136.434C124.317 136.148 124.113 135.923 124.189 135.923C124.241 135.923 124.573 136.148 124.905 136.434ZM131.268 141.012C132.06 141.605 131.115 140.972 129.198 139.602C127.256 138.233 125.672 137.068 125.672 137.006C125.672 136.884 129.147 139.357 131.268 141.012ZM38.0171 138.171C37.8127 138.274 37.5316 138.376 37.3782 138.376C37.2505 138.376 37.3016 138.274 37.506 138.171C37.7105 138.069 38.0171 137.967 38.1449 137.967C38.2982 137.967 38.2216 138.069 38.0171 138.171ZM141.797 138.519C142.129 138.846 142.104 138.866 141.72 138.601C141.465 138.458 141.26 138.294 141.26 138.253C141.26 138.09 141.465 138.192 141.797 138.519ZM142.564 139.336C142.896 139.663 142.87 139.684 142.487 139.418C142.231 139.275 142.027 139.112 142.027 139.071C142.027 138.907 142.231 139.009 142.564 139.336ZM143.33 140.154C143.663 140.481 143.637 140.501 143.254 140.236C142.819 139.97 142.691 139.807 142.896 139.807C142.947 139.807 143.151 139.97 143.33 140.154ZM144.583 141.442C145.349 142.321 145.043 142.198 144.174 141.299C143.79 140.89 143.586 140.624 143.765 140.706C143.918 140.767 144.301 141.115 144.583 141.442ZM134.488 143.281C135.025 143.731 135.434 144.099 135.357 144.099C135.28 144.099 134.769 143.731 134.233 143.281C133.696 142.832 133.287 142.464 133.364 142.464C133.44 142.464 133.952 142.832 134.488 143.281ZM149.719 146.899C150.051 147.226 150.026 147.247 149.642 146.981C149.387 146.838 149.183 146.674 149.183 146.633C149.183 146.47 149.387 146.572 149.719 146.899ZM153.322 150.762C154.498 152.029 155.597 153.092 155.801 153.133C156.031 153.174 155.904 153.297 155.444 153.46C154.805 153.685 154.754 153.685 155.035 153.44C155.265 153.194 154.932 152.724 153.22 150.926C152.07 149.699 150.844 148.371 150.511 147.982L149.898 147.267L150.537 147.88C150.92 148.207 152.147 149.515 153.322 150.762ZM159.123 153.01C159.175 153.051 158.561 153.072 157.718 153.072C156.517 153.051 156.364 153.01 156.977 152.888C157.667 152.765 158.842 152.827 159.123 153.01ZM150.077 154.523C150.332 154.748 150.486 154.932 150.409 154.932C150.332 154.932 150.077 154.748 149.821 154.523C149.566 154.298 149.412 154.114 149.489 154.114C149.566 154.114 149.821 154.298 150.077 154.523ZM152.3 156.301C152.249 156.547 152.147 156.771 152.121 156.771C152.096 156.771 151.994 156.547 151.942 156.301C151.866 156.015 151.942 155.811 152.121 155.811C152.3 155.811 152.377 156.015 152.3 156.301Z" fill="black"/>
<path d="M58.4612 114.278C58.4612 114.38 58.589 114.421 58.7167 114.359C58.8701 114.298 58.9723 114.196 58.9723 114.134C58.9723 114.094 58.8701 114.053 58.7167 114.053C58.589 114.053 58.4612 114.155 58.4612 114.278Z" fill="black"/>
<path d="M58.3334 114.87C58.6145 115.156 58.8445 115.402 58.87 115.443C58.8956 115.483 58.9978 115.34 59.0745 115.136C59.1767 114.952 59.1767 114.85 59.0745 114.932C58.9723 115.013 58.64 114.911 58.3589 114.727L57.8223 114.359L58.3334 114.87Z" fill="black"/>
<path d="M60.787 115.954C60.5825 116.158 60.6081 116.24 60.8892 116.24C61.0936 116.24 61.1958 116.158 61.1192 116.076C61.0681 115.994 61.1703 115.872 61.3236 115.831C61.5281 115.749 61.5536 115.708 61.3747 115.708C61.2214 115.688 60.9403 115.811 60.787 115.954Z" fill="black"/>
<path d="M62.0904 116.505C62.2693 116.71 62.4481 116.873 62.4737 116.833C62.627 116.71 62.2437 116.097 62.0137 116.097C61.8859 116.097 61.9115 116.281 62.0904 116.505Z" fill="black"/>
<path d="M60.7612 116.894C60.7612 117.098 61.2468 117.405 61.4001 117.303C61.4257 117.262 61.3234 117.098 61.119 116.955C60.9146 116.812 60.7612 116.792 60.7612 116.894Z" fill="black"/>
<path d="M61.707 117.732C61.5537 118.182 62.1414 118.713 62.4225 118.345C62.5248 118.222 62.4992 118.141 62.3714 118.161C61.8859 118.222 61.7837 118.12 62.0392 117.732C62.1925 117.507 62.2181 117.323 62.0903 117.323C61.937 117.323 61.7837 117.507 61.707 117.732Z" fill="black"/>
<path d="M62.908 118.345C62.908 118.611 63.0102 118.672 63.1635 118.549C63.3424 118.406 63.3424 118.284 63.1635 118.141C63.0102 118.018 62.908 118.079 62.908 118.345Z" fill="black"/>
<path d="M64.4667 119.776C64.5434 119.878 64.6711 119.98 64.7478 119.98C64.7989 119.98 64.85 119.878 64.85 119.776C64.85 119.653 64.7222 119.571 64.5689 119.571C64.4411 119.571 64.39 119.653 64.4667 119.776Z" fill="black"/>
<path d="M65.8723 119.653C65.8723 119.694 66.0512 119.796 66.2812 119.858C66.4856 119.919 66.5879 119.898 66.5112 119.776C66.3579 119.571 65.8723 119.49 65.8723 119.653Z" fill="black"/>
<path d="M129.965 47.3585C130.144 47.4198 130.374 47.3994 130.45 47.338C130.553 47.2767 130.399 47.2154 130.118 47.2358C129.837 47.2358 129.76 47.2972 129.965 47.3585Z" fill="black"/>
</svg>
