<?xml version="1.0" standalone="no"?>
<!DOCTYPE svg PUBLIC "-//W3C//DTD SVG 20010904//EN"
 "http://www.w3.org/TR/2001/REC-SVG-20010904/DTD/svg10.dtd">
<svg version="1.0" xmlns="http://www.w3.org/2000/svg"
 width="677.000000pt" height="784.000000pt" viewBox="0 0 677.000000 784.000000"
 preserveAspectRatio="xMidYMid meet">

<g transform="translate(0.000000,784.000000) scale(0.100000,-0.100000)"
fill="#000000" stroke="none">
<path d="M1314 7816 c-37 -16 -69 -55 -84 -101 -11 -32 -8 -43 35 -137 26 -57
123 -267 215 -468 92 -201 220 -480 284 -620 65 -140 172 -375 239 -521 l122
-266 119 -39 c86 -28 141 -54 197 -90 75 -50 180 -94 224 -94 32 0 33 -5 20
-64 -48 -206 -15 -424 92 -616 35 -63 74 -111 148 -186 l101 -101 -37 -43 -37
-43 -33 38 c-47 53 -153 131 -226 166 -69 33 -199 69 -248 69 -27 0 -35 5 -45
30 -8 20 -20 30 -34 30 -11 0 -100 7 -196 15 -1196 102 -1979 165 -2001 160
-42 -9 -105 -70 -133 -128 -52 -107 -43 -213 22 -275 21 -19 327 -216 682
-437 355 -221 796 -497 980 -613 304 -190 337 -209 352 -195 15 13 22 13 65
-1 129 -42 287 -50 409 -20 94 22 217 83 291 143 l62 50 17 -27 c10 -15 48
-59 86 -98 l68 -71 -26 -24 c-42 -38 -112 -141 -140 -205 -14 -33 -27 -60 -27
-61 -1 -1 -40 -7 -86 -13 -46 -6 -114 -23 -150 -36 -36 -14 -115 -32 -176 -40
-60 -9 -115 -21 -121 -27 -6 -7 -150 -192 -321 -412 -170 -220 -468 -604 -662
-854 -195 -250 -357 -468 -362 -485 -15 -53 -10 -76 26 -120 33 -41 39 -44 99
-50 l64 -6 728 301 c401 165 817 337 924 381 107 44 231 95 275 113 74 30 82
37 112 86 17 30 53 79 78 110 l47 56 77 -19 c42 -10 97 -18 123 -18 45 0 47
-1 59 -37 14 -44 71 -159 92 -188 10 -13 13 -35 10 -75 l-5 -55 159 -107 c87
-58 219 -148 293 -199 175 -119 579 -394 795 -541 94 -64 224 -152 290 -198
66 -45 255 -173 420 -286 165 -113 312 -214 326 -225 92 -73 265 11 305 147
20 71 18 76 -107 282 -121 199 -776 1274 -1076 1767 -117 192 -221 353 -230
357 -10 3 -35 7 -56 7 -32 1 -51 11 -105 56 -80 67 -202 130 -282 147 l-58 12
-12 60 c-27 141 -108 292 -209 391 l-51 49 56 57 56 57 57 -33 c108 -64 170
-79 321 -80 122 0 142 3 215 29 68 24 101 28 225 34 l145 5 457 526 c252 289
609 699 794 911 l336 385 -6 43 c-13 101 -89 172 -183 172 -14 0 -451 -148
-971 -329 -521 -181 -1021 -355 -1112 -387 -187 -64 -193 -69 -255 -191 -20
-40 -40 -73 -44 -73 -3 0 -36 29 -74 64 l-68 64 46 38 c100 86 204 257 246
407 20 69 23 106 24 230 0 81 2 147 5 147 3 -1 32 -7 65 -15 33 -8 100 -15
149 -15 147 0 273 40 391 125 35 25 70 45 77 46 7 0 -25 11 -72 24 -118 32
-83 31 46 -1 69 -18 101 -30 92 -35 -10 -7 -10 -9 3 -9 9 0 268 303 588 688
315 378 580 696 589 707 9 11 32 37 49 58 18 22 30 44 26 49 -3 6 -1 8 4 5 6
-4 37 26 70 66 33 39 85 102 116 138 31 36 57 75 57 86 0 69 -141 232 -219
253 -38 10 -52 5 -323 -106 -155 -64 -355 -145 -443 -181 -88 -36 -338 -138
-555 -228 -217 -89 -481 -197 -587 -240 -106 -43 -190 -82 -187 -86 2 -4 21
-1 40 7 49 20 53 12 7 -12 -46 -23 -53 -31 -53 -64 0 -19 -10 -29 -38 -42
-184 -86 -341 -340 -342 -552 0 -66 7 -65 -98 -21 -107 45 -191 57 -348 53
l-140 -4 -12 75 c-8 54 -25 103 -56 166 -25 50 -52 122 -61 160 -8 39 -17 80
-21 91 -3 13 -67 65 -154 128 -82 58 -151 106 -154 106 -3 0 -3 -8 0 -17 5
-15 4 -15 -4 -3 -6 8 -9 17 -6 21 4 7 -120 99 -133 99 -4 0 4 -11 17 -25 13
-14 21 -25 17 -25 -11 0 -47 43 -42 50 4 7 -217 170 -231 170 -3 0 0 -8 7 -17
13 -16 12 -17 -3 -4 -10 7 -15 17 -13 22 8 12 -83 71 -97 63 -6 -4 -8 -3 -5 3
6 9 -194 157 -550 408 -24 16 -125 87 -224 158 -170 119 -183 127 -227 127
-26 -1 -61 -7 -78 -14z m86 -296 c6 -11 8 -20 6 -20 -3 0 -10 9 -16 20 -6 11
-8 20 -6 20 3 0 10 -9 16 -20z m440 -145 c19 -19 32 -35 29 -35 -3 0 -20 16
-39 35 -19 19 -32 35 -29 35 3 0 20 -16 39 -35z m4480 30 c0 -2 -10 -9 -22
-15 -22 -11 -22 -10 -4 4 21 17 26 19 26 11z m-70 -40 c0 -2 -10 -9 -22 -15
-22 -11 -22 -10 -4 4 21 17 26 19 26 11z m-70 -40 c0 -2 -13 -11 -30 -20 -38
-19 -40 -11 -2 9 31 17 32 18 32 11z m-4205 -75 c10 -11 16 -20 13 -20 -3 0
-13 9 -23 20 -10 11 -16 20 -13 20 3 0 13 -9 23 -20z m4085 6 c0 -2 -26 -19
-57 -36 -32 -18 -78 -44 -103 -58 -25 -14 -40 -21 -35 -15 9 9 185 113 193
113 1 0 2 -2 2 -4z m210 -99 c0 -1 -26 -27 -57 -57 l-58 -55 55 58 c50 53 60
62 60 54z m-440 -32 c0 -2 -10 -9 -22 -15 -22 -11 -22 -10 -4 4 21 17 26 19
26 11z m-50 -30 c0 -2 -13 -11 -30 -20 -38 -19 -40 -11 -2 9 31 17 32 18 32
11z m-90 -50 c0 -2 -10 -9 -22 -15 -22 -11 -22 -10 -4 4 21 17 26 19 26 11z
m-70 -39 c0 -4 -455 -268 -510 -296 -14 -7 -22 -9 -18 -5 6 7 519 304 526 305
1 0 2 -2 2 -4z m-2939 -84 c-7 -2 -18 1 -23 6 -8 8 -4 9 13 5 13 -4 18 -8 10
-11z m-98 -224 c55 -51 92 -78 108 -78 56 -1 61 -37 11 -81 -21 -19 -42 -29
-53 -26 -11 3 -17 1 -13 -4 7 -13 1 -11 -32 6 -16 8 -25 15 -20 15 5 0 7 3 4
6 -4 3 -18 -2 -33 -12 -20 -13 -23 -19 -13 -26 9 -6 7 -8 -8 -4 -14 4 -31 -4
-56 -26 -19 -18 -39 -35 -44 -37 -27 -12 -53 -34 -48 -42 3 -5 -3 -6 -12 -2
-10 4 -15 2 -11 -4 3 -5 1 -10 -6 -10 -15 0 -136 -90 -155 -116 -12 -15 -19
-8 -71 70 -71 110 -73 113 -67 113 2 0 31 -38 64 -85 l59 -85 214 161 c118 89
221 168 229 175 13 13 -2 31 -115 140 -129 125 -95 101 68 -48z m242 133 c3
-5 2 -12 -3 -15 -5 -3 -9 1 -9 9 0 17 3 19 12 6z m111 -83 l19 -23 -25 20
c-14 11 -27 21 -29 22 -2 2 0 3 6 3 5 0 18 -10 29 -22z m79 -58 c3 -5 1 -10
-4 -10 -6 0 -11 5 -11 10 0 6 2 10 4 10 3 0 8 -4 11 -10z m2060 1 c-6 -4 -129
-77 -275 -161 -466 -269 -498 -296 -488 -402 3 -26 4 -48 3 -48 -5 0 -75 110
-75 118 0 5 10 18 23 30 18 17 803 470 817 472 2 0 0 -4 -5 -9z m-778 -123
c-3 -7 -5 -2 -5 12 0 14 2 19 5 13 2 -7 2 -19 0 -25z m-1837 -193 c-7 -8 -17
-15 -23 -15 -6 0 -2 7 9 15 25 19 30 19 14 0z m415 -130 c0 -13 -8 -21 -22
-23 -17 -3 -23 2 -23 16 0 10 3 22 7 26 13 13 38 1 38 -19z m-718 -227 c-3 -7
-5 -2 -5 12 0 14 2 19 5 13 2 -7 2 -19 0 -25z m2097 3 c24 -26 17 -53 -16 -65
-32 -11 -58 6 -58 38 0 45 44 61 74 27z m651 -123 c-163 -151 -235 -223 -235
-236 0 -6 8 -18 17 -28 17 -16 15 -17 -22 -10 -22 4 -43 11 -47 14 -3 4 32 41
79 82 47 41 136 121 197 177 61 56 113 102 116 102 3 0 -44 -45 -105 -101z
m-1482 -85 c-13 -2 -35 -2 -50 0 -16 2 -5 4 22 4 28 0 40 -2 28 -4z m-110 -10
c-7 -2 -21 -2 -30 0 -10 3 -4 5 12 5 17 0 24 -2 18 -5z m210 0 c-7 -2 -19 -2
-25 0 -7 3 -2 5 12 5 14 0 19 -2 13 -5z m-283 -13 c-34 -11 -60 -11 -35 0 11
5 29 8 40 8 16 0 15 -2 -5 -8z m413 -20 c89 -33 63 -32 -33 2 -47 16 -71 27
-55 24 17 -2 57 -14 88 -26z m902 -44 l17 -31 -20 24 c-11 14 -27 38 -37 55
l-17 31 20 -24 c11 -14 27 -38 37 -55z m-720 -58 c11 -11 -9 -1 -44 21 -36 23
-67 44 -70 48 -13 15 95 -51 114 -69z m-795 47 c0 -2 -10 -9 -22 -15 -22 -11
-22 -10 -4 4 21 17 26 19 26 11z m422 -57 c-11 -11 -32 -3 -32 12 0 4 9 6 21
3 13 -4 17 -9 11 -15z m81 -10 c15 -5 27 -16 27 -24 0 -8 10 -14 24 -14 38 0
49 -22 42 -86 -5 -59 -34 -102 -58 -88 -7 5 -8 3 -3 -6 6 -10 3 -12 -13 -8
-12 4 -22 2 -22 -3 0 -5 -13 -9 -30 -9 -16 0 -30 4 -30 9 0 5 -9 13 -20 16
-26 8 -50 66 -50 120 0 25 -5 45 -12 48 -7 3 2 8 20 12 18 4 35 12 38 16 3 5
14 9 25 9 11 0 17 -4 14 -10 -4 -6 9 -9 32 -9 28 1 31 3 13 6 -14 3 -34 14
-45 26 -19 21 -19 21 0 13 11 -4 32 -13 48 -18z m342 -18 c10 -11 16 -20 13
-20 -3 0 -13 9 -23 20 -10 11 -16 20 -13 20 3 0 13 -9 23 -20z m852 -16 c-3
-3 -12 -4 -19 -1 -8 3 -5 6 6 6 11 1 17 -2 13 -5z m88 -19 c54 -17 33 -18 -30
-1 -27 8 -41 14 -30 14 11 0 38 -5 60 -13z m72 -21 c-3 -3 -12 -4 -19 -1 -8 3
-5 6 6 6 11 1 17 -2 13 -5z m-1809 -127 l42 -43 -28 -2 c-42 -3 -75 -47 -68
-91 16 -104 154 -88 144 17 l-3 39 32 -24 c25 -20 33 -33 33 -58 0 -68 -81
-145 -153 -145 -182 0 -256 248 -102 338 35 20 60 13 103 -31z m747 -70 c75
-129 -18 -287 -179 -304 -114 -12 -200 50 -220 158 -7 41 -2 48 60 72 l42 16
-5 -37 c-7 -51 25 -92 72 -92 47 0 64 8 80 41 22 42 19 58 -20 94 l-34 33 72
30 c40 17 80 31 89 31 10 1 28 -17 43 -42z m2795 -210 c0 -2 -10 -12 -22 -23
l-23 -19 19 23 c18 21 26 27 26 19z m-3718 -66 c18 -16 44 -38 57 -48 l23 -19
-41 -27 c-22 -15 -43 -27 -46 -27 -4 0 -26 70 -41 134 -8 33 -4 31 48 -13z
m3618 -24 c0 -2 -19 -21 -42 -42 l-43 -40 40 43 c36 39 45 47 45 39z m-3339
-126 c39 -11 74 -23 77 -25 2 -3 -23 -34 -57 -68 l-61 -63 -21 25 c-20 23 -68
110 -96 172 l-12 28 49 -25 c26 -13 81 -33 121 -44z m607 -18 c-45 -96 -70
-136 -78 -126 -5 4 -28 35 -53 68 l-45 60 91 31 c51 18 97 32 104 33 7 1 -1
-27 -19 -66z m-208 -10 c0 -23 -136 -173 -157 -173 -13 0 -113 143 -113 161 0
5 48 10 108 12 59 1 119 4 135 5 15 1 27 -1 27 -5z m-600 -108 c11 -13 10 -14
-4 -9 -9 3 -16 10 -16 15 0 13 6 11 20 -6z m1910 -5 c-8 -5 -19 -10 -25 -10
-5 0 -3 5 5 10 8 5 20 10 25 10 6 0 3 -5 -5 -10z m-1074 -21 c36 -22 44 -32
19 -22 -10 3 -15 0 -13 -8 2 -8 -3 -13 -9 -11 -7 1 -13 -2 -13 -8 0 -5 -7 -10
-15 -10 -11 0 -15 11 -15 40 0 22 3 40 6 40 4 0 22 -9 40 -21z m1024 1 c-8 -5
-24 -9 -35 -9 l-20 0 20 9 c11 5 27 9 35 9 13 1 13 0 0 -9z m-1547 -143 c-2
-4 -13 -2 -25 4 -11 6 -31 8 -45 4 -20 -5 -24 -3 -20 9 8 19 -13 21 -32 4 -11
-11 -12 -10 -5 2 5 8 9 18 9 21 0 3 11 22 25 42 l24 36 37 -57 c20 -31 34 -60
32 -65z m-2903 109 c0 -2 -7 -7 -16 -10 -8 -3 -12 -2 -9 4 6 10 25 14 25 6z
m4300 -16 c0 -5 -2 -10 -4 -10 -3 0 -8 5 -11 10 -3 6 -1 10 4 10 6 0 11 -4 11
-10z m-1156 -39 c36 -37 42 -69 10 -57 -8 3 -14 1 -14 -5 0 -6 -7 -9 -15 -5
-8 3 -15 2 -15 -3 0 -12 -30 -9 -30 3 0 6 -8 2 -17 -9 -9 -11 -14 -14 -11 -5
26 75 44 120 48 120 3 0 23 -18 44 -39z m1096 19 c-8 -5 -19 -10 -25 -10 -5 0
-3 5 5 10 8 5 20 10 25 10 6 0 3 -5 -5 -10z m635 -29 c-6 -5 -89 -49 -185 -97
-96 -48 -177 -89 -179 -90 -2 -2 83 -118 188 -258 l192 -255 78 62 c43 34 98
77 122 96 l44 33 -45 -41 c-25 -23 -77 -69 -117 -102 -40 -33 -73 -68 -75 -77
-3 -12 -9 -7 -22 18 -20 39 -63 96 -181 245 -44 55 -91 117 -105 138 -25 37
-40 47 -40 26 0 -6 -6 -9 -14 -6 -7 3 -19 0 -25 -6 -9 -9 -14 -8 -21 3 -7 11
-10 11 -10 2 0 -7 -18 7 -39 32 -22 25 -38 53 -36 63 2 10 4 24 4 31 1 10 12
12 44 8 38 -6 59 2 232 88 200 99 205 101 190 87z m-1664 -58 c13 -16 12 -17
-3 -4 -10 7 -18 15 -18 17 0 8 8 3 21 -13z m2209 -197 c0 -2 -8 -10 -17 -17
-16 -13 -17 -12 -4 4 13 16 21 21 21 13z m-3943 -22 c-3 -3 -12 -4 -19 -1 -8
3 -5 6 6 6 11 1 17 -2 13 -5z m40 -10 c-3 -3 -12 -4 -19 -1 -8 3 -5 6 6 6 11
1 17 -2 13 -5z m245 -48 c112 -25 241 -54 288 -65 111 -27 138 -27 142 0 2 17
8 11 26 -27 13 -26 18 -43 10 -37 -7 6 -134 38 -283 73 -148 34 -301 70 -340
80 -128 33 -48 21 157 -24z m1692 -182 c19 -18 21 -45 4 -62 -20 -20 -65 -14
-82 9 -32 46 38 93 78 53z m731 6 c3 -5 -1 -10 -9 -10 -9 0 -16 5 -16 10 0 6
4 10 9 10 6 0 13 -4 16 -10z m-1848 -26 c9 -24 -10 -49 -38 -49 -24 0 -36 23
-25 51 7 19 55 18 63 -2z m350 -86 c-3 -8 -6 -5 -6 6 -1 11 2 17 5 13 3 -3 4
-12 1 -19z m-530 -100 c-3 -8 -6 -5 -6 6 -1 11 2 17 5 13 3 -3 4 -12 1 -19z
m-377 -213 c14 -8 21 -14 15 -14 -5 0 -21 6 -35 14 -14 8 -20 14 -15 14 6 0
21 -6 35 -14z m3077 -17 c-3 -8 -6 -5 -6 6 -1 11 2 17 5 13 3 -3 4 -12 1 -19z
m-3017 -8 c8 -5 11 -10 5 -10 -5 0 -17 5 -25 10 -8 5 -10 10 -5 10 6 0 17 -5
25 -10z m70 -30 c8 -5 11 -10 5 -10 -5 0 -17 5 -25 10 -8 5 -10 10 -5 10 6 0
17 -5 25 -10z m2937 -22 c-3 -8 -6 -5 -6 6 -1 11 2 17 5 13 3 -3 4 -12 1 -19z
m-2867 -8 c8 -5 11 -10 5 -10 -5 0 -17 5 -25 10 -8 5 -10 10 -5 10 6 0 17 -5
25 -10z m50 -20 c8 -5 11 -10 5 -10 -5 0 -17 5 -25 10 -8 5 -10 10 -5 10 6 0
17 -5 25 -10z m-140 -163 c0 -2 -10 -12 -22 -23 l-23 -19 19 23 c18 21 26 27
26 19z m-90 -78 c-70 -62 -150 -122 -155 -117 -5 4 184 156 195 157 3 0 -15
-18 -40 -40z m1430 -505 c0 -17 -22 -14 -28 4 -2 7 3 12 12 12 9 0 16 -7 16
-16z m-1283 -96 c-3 -7 -5 -2 -5 12 0 14 2 19 5 13 2 -7 2 -19 0 -25z m-10
-80 c-2 -13 -4 -5 -4 17 -1 22 1 32 4 23 2 -10 2 -28 0 -40z m-10 -75 c-3 -10
-5 -2 -5 17 0 19 2 27 5 18 2 -10 2 -26 0 -35z m-10 -85 c-2 -13 -4 -5 -4 17
-1 22 1 32 4 23 2 -10 2 -28 0 -40z m2308 23 l100 -8 -137 -2 c-162 -1 -163
-2 -95 -96 50 -70 128 -195 122 -195 -8 0 -211 278 -220 301 -6 16 18 16 230
0z m-2322 -162 c-7 -69 -6 -88 5 -99 12 -11 13 -9 8 11 -4 18 -2 16 9 -6 11
-23 14 -25 15 -11 0 37 29 -15 30 -54 0 -28 10 -46 48 -85 26 -28 67 -73 91
-100 107 -122 161 -175 185 -181 30 -7 29 -5 16 -38 -9 -23 -7 -26 28 -36 20
-5 65 -15 100 -21 120 -21 55 -19 -86 3 -159 25 -136 29 -279 -52 -40 -22 -73
-39 -73 -37 0 3 36 28 80 56 49 32 80 59 80 69 -1 9 -44 67 -98 127 -53 61
-118 135 -143 164 -56 64 -50 66 -194 -58 -197 -170 -185 -153 46 64 l96 90
19 155 c19 161 31 187 17 39z m1686 42 c14 -26 -8 -54 -40 -49 -16 2 -25 10
-27 27 -6 40 48 58 67 22z m-1622 -138 c-3 -10 -5 -4 -5 12 0 17 2 24 5 18 2
-7 2 -21 0 -30z m2294 -100 c13 -16 12 -17 -3 -4 -17 13 -22 21 -14 21 2 0 10
-8 17 -17z m-777 -173 c21 -19 46 -42 55 -51 9 -8 68 -62 131 -119 113 -102
269 -253 200 -194 -48 42 -298 238 -393 309 -47 35 -82 54 -87 49 -5 -5 -18
-68 -28 -139 -24 -155 -27 -122 -7 59 11 100 18 131 32 141 20 15 16 17 97
-55z m-2129 -311 c-22 -22 -76 -72 -120 -111 -54 -48 -43 -35 35 40 115 111
159 148 85 71z m1198 34 c-7 -2 -19 -2 -25 0 -7 3 -2 5 12 5 14 0 19 -2 13 -5z
m60 -10 c-7 -2 -21 -2 -30 0 -10 3 -4 5 12 5 17 0 24 -2 18 -5z m724 -45 c-2
-13 -4 -5 -4 17 -1 22 1 32 4 23 2 -10 2 -28 0 -40z m-674 35 c-7 -2 -19 -2
-25 0 -7 3 -2 5 12 5 14 0 19 -2 13 -5z m1987 -48 c24 -29 24 -29 2 -10 -13
11 -28 29 -34 40 -11 21 -8 18 32 -30z m41 -52 c13 -16 12 -17 -3 -4 -17 13
-22 21 -14 21 2 0 10 -8 17 -17z m-756 -13 c10 -11 16 -20 13 -20 -3 0 -13 9
-23 20 -10 11 -16 20 -13 20 3 0 13 -9 23 -20z m-608 -42 c-2 -13 -4 -5 -4 17
-1 22 1 32 4 23 2 -10 2 -28 0 -40z m-1507 8 c0 -2 -7 -7 -16 -10 -8 -3 -12
-2 -9 4 6 10 25 14 25 6z m-60 -31 c0 -2 -10 -9 -22 -15 -22 -11 -22 -10 -4 4
21 17 26 19 26 11z m-120 -70 c0 -2 -10 -9 -22 -15 -22 -11 -22 -10 -4 4 21
17 26 19 26 11z m2850 -360 c13 -14 21 -25 18 -25 -2 0 -15 11 -28 25 -13 14
-21 25 -18 25 2 0 15 -11 28 -25z m249 -224 c31 -29 -6 2 -81 69 -76 67 -138
124 -138 127 0 6 136 -115 219 -196z m-3649 139 c-8 -5 -19 -10 -25 -10 -5 0
-3 5 5 10 8 5 20 10 25 10 6 0 3 -5 -5 -10z m4061 -17 c13 -16 12 -17 -3 -4
-10 7 -18 15 -18 17 0 8 8 3 21 -13z m30 -40 c13 -16 12 -17 -3 -4 -10 7 -18
15 -18 17 0 8 8 3 21 -13z m30 -40 c13 -16 12 -17 -3 -4 -17 13 -22 21 -14 21
2 0 10 -8 17 -17z m49 -63 c30 -43 18 -37 -16 7 -15 20 -23 33 -16 29 6 -3 21
-20 32 -36z m-395 -90 c21 -22 37 -40 34 -40 -3 0 -23 18 -44 40 -21 22 -37
40 -34 40 3 0 23 -18 44 -40z m596 -177 c13 -16 12 -17 -3 -4 -10 7 -18 15
-18 17 0 8 8 3 21 -13z m141 -189 c46 -62 89 -114 97 -116 9 -2 4 -8 -14 -16
-25 -11 -27 -11 -16 1 9 12 -4 35 -71 123 -45 60 -93 125 -106 144 l-24 35 25
-30 c15 -16 63 -80 109 -141z m227 -110 c2 -2 -22 -3 -55 -3 -47 1 -53 3 -29
9 27 6 73 3 84 -6z m-354 -74 c10 -11 16 -20 13 -20 -3 0 -13 9 -23 20 -10 11
-16 20 -13 20 3 0 13 -9 23 -20z m87 -87 c-2 -12 -6 -23 -7 -23 -1 0 -5 11 -7
23 -3 14 0 24 7 24 7 0 10 -10 7 -24z"/>
<path d="M2290 2239 c0 -5 5 -7 10 -4 6 3 10 8 10 11 0 2 -4 4 -10 4 -5 0 -10
-5 -10 -11z"/>
<path d="M2285 2210 c11 -14 20 -26 21 -28 1 -2 5 5 8 15 4 9 4 14 0 10 -4 -4
-17 1 -28 10 l-21 18 20 -25z"/>
<path d="M2381 2157 c-8 -10 -7 -14 4 -14 8 0 12 4 9 8 -2 4 2 10 8 12 8 4 9
6 2 6 -6 1 -17 -5 -23 -12z"/>
<path d="M2432 2130 c7 -10 14 -18 15 -16 6 6 -9 36 -18 36 -5 0 -4 -9 3 -20z"/>
<path d="M2380 2111 c0 -10 19 -25 25 -20 1 2 -3 10 -11 17 -8 7 -14 8 -14 3z"/>
<path d="M2417 2070 c-6 -22 17 -48 28 -30 4 6 3 10 -2 9 -19 -3 -23 2 -13 21
6 11 7 20 2 20 -6 0 -12 -9 -15 -20z"/>
<path d="M2464 2040 c0 -13 4 -16 10 -10 7 7 7 13 0 20 -6 6 -10 3 -10 -10z"/>
<path d="M2525 1970 c3 -5 8 -10 11 -10 2 0 4 5 4 10 0 6 -5 10 -11 10 -5 0
-7 -4 -4 -10z"/>
<path d="M2580 1976 c0 -2 7 -7 16 -10 8 -3 12 -2 9 4 -6 10 -25 14 -25 6z"/>
<path d="M5088 5513 c7 -3 16 -2 19 1 4 3 -2 6 -13 5 -11 0 -14 -3 -6 -6z"/>
</g>
</svg>
